<?xml version="1.0" encoding="utf-8"?>
<!-- Generator: Adobe Illustrator 25.4.1, SVG Export Plug-In . SVG Version: 6.00 Build 0)  -->
<svg version="1.1" xmlns="http://www.w3.org/2000/svg" xmlns:xlink="http://www.w3.org/1999/xlink" x="0px" y="0px"
	 viewBox="0 0 284.93 197.26" style="enable-background:new 0 0 284.93 197.26;" xml:space="preserve">
<style type="text/css">
	.st0{fill:#FFFFFF;}
	.st1{display:none;}
	.st2{display:inline;fill:none;stroke:#EF4623;stroke-miterlimit:10;}
	.st3{display:inline;fill:none;stroke:#D81C57;stroke-miterlimit:10;}
</style>
<g id="Layer_1">
	<path class="st0" d="M199.67,135.47v-8.49h45.01l4.16-6.41l-3.41-3.86h-45.76v-9.83c0-4.79,3.88-8.67,8.67-8.67h20.36l-24.2-24.44
		l-44.85,51.63l18.84,32.53h48.12l7.05-12.46h-23.98C204.15,145.47,199.67,140.99,199.67,135.47z"/>
	<path class="st0" d="M9.3,5.61l18.62,185.08l1-68.3l45.7-50.55L9.3,5.61z M27.02,101.1V77.08c0-5.66,5.92-9.38,11.02-6.93l3.6,1.73
		c4.41,2.12,5.48,7.92,2.12,11.47L27.02,101.1z"/>
	<path class="st0" d="M78.17,75.48L30.67,125.4l18.84,32.53h57.33l18.65-32.53L78.17,75.48z M67.5,117.89l10.58-18.32l10.59,18.35
		c2.43,4.21-0.61,9.47-5.47,9.47H72.98C68.11,127.39,65.06,122.11,67.5,117.89z"/>
	<path class="st0" d="M206.92,70.76l47.85,46.72l-8.12,73.2l19.4-58.31l7.29,12.7L264.18,5.61L206.92,70.76z M258.41,100.1
		l-15.68-16.62c-3.88-4.11-2.64-10.82,2.45-13.27l2.56-1.23c4.94-2.38,10.67,1.22,10.67,6.7V100.1z"/>
	<path class="st0" d="M14.01,5.61L128.88,120l9.31-48.08c0.65-3.75,6.01-3.81,6.74-0.08L155.37,120L260.41,5.61L165.6,84.17
		l-24.26-43.83l-23.23,43.83L14.01,5.61z"/>
</g>
<g id="Layer_2" class="st1">
	<line class="st2" x1="9.3" y1="5.61" x2="150.79" y2="150.63"/>
	<line class="st3" x1="264.18" y1="5.61" x2="142.88" y2="145.02"/>
</g>
</svg>
