<?xml version="1.0" encoding="utf-8"?>
<!-- Generator: Adobe Illustrator 25.1.0, SVG Export Plug-In . SVG Version: 6.00 Build 0)  -->
<svg version="1.1" id="Layer_1" xmlns="http://www.w3.org/2000/svg" xmlns:xlink="http://www.w3.org/1999/xlink" x="0px" y="0px"
	 viewBox="0 0 389 158" style="enable-background:new 0 0 389 158;" xml:space="preserve">
<style type="text/css">
	.st0{fill:#FFFFFF;}
	.st1{fill:none;stroke:#FFFFFF;stroke-miterlimit:10;}
</style>
<g>
	<g>
		<g>
			<g>
				<path class="st0" d="M18.04,80.14c0,0,86.92-50.43,171.46,26.39c0,0-76.29-62.86-174.01-12.97L18.04,80.14z"/>
				<path class="st0" d="M13.32,104.98c0,0,90.21-63.88,203.27,22.81c0,0-105.17-74.63-206.65-5L13.32,104.98z"/>
				<path class="st0" d="M7.98,133.08c0,0,99.69-77.35,225.98,12.52c0,0-110.61-73.36-229.72,7.17L7.98,133.08z"/>
			</g>
			<path class="st0" d="M209.36,114.7c0,0,34.88,23.41,57.71,2.97l16.17,3.07C283.24,120.75,265.01,151.51,209.36,114.7z"/>
			<path class="st0" d="M229.33,131.61c0,0,42.81,16.88,67.97-8.19l17.58,3.34C314.87,126.76,291.99,155.18,229.33,131.61z"/>
			<path class="st0" d="M241.15,144.78c0,0,66.3,13.36,85.67-15.75l18.25,3.47C345.07,132.51,318.28,164.4,241.15,144.78z"/>
		</g>
	</g>
	<g>
		<polygon class="st1" points="382.77,63.17 339.59,84.12 342.31,132.03 312.91,97.07 269.74,118.02 294.74,75.46 265.34,40.5 
			310.19,49.16 335.19,6.6 337.91,54.51 		"/>
		<path class="st0" d="M368.22,65.14l-34.99-6.75l-2.12-37.37l-19.5,33.2l-34.99-6.75l22.93,27.27l-19.5,33.2l33.67-16.34
			l22.93,27.27l-2.12-37.37L368.22,65.14z M315.29,85.55L291.7,97l13.66-23.26l-16.07-19.11l24.52,4.73l13.66-23.26l1.49,26.19
			l24.52,4.73l-23.6,11.45l1.49,26.19L315.29,85.55z"/>
	</g>
</g>
</svg>
